<?xml version='1.0' encoding='utf-8'?>
<!DOCTYPE svg PUBLIC '-//W3C//DTD SVG 1.1//EN' 'http://www.w3.org/Graphics/SVG/1.1/DTD/svg11.dtd'>
<svg version="1.1" xmlns="http://www.w3.org/2000/svg" viewBox="0 0 512 512" xmlns:xlink="http://www.w3.org/1999/xlink" enable-background="new 0 0 512 512">
  <g>
    <path fill="#231F20" d="m486.8,418.5l-152.6-152.6c-4.1-4.1-10.7-4.1-14.7,0l-19.5,19.4-36.3-36.3c21.8-25.2 35-58.1 35-94.1 0-79.4-64.4-143.8-143.8-143.8s-143.9,64.4-143.9,143.8 64.4,143.8 143.8,143.8c36,0 68.9-13.2 94.1-35l36.3,36.3-19.4,19.4c-5.9,6.6-2,12.8 0,14.7l152.6,152.6c27.3,25.2 57.1,11.2 68.3,0 25-24.7 12.7-55.6 0.1-68.2zm-331.9-140.6c-67.9,0-123-55.1-123-123 0-67.9 55.1-123 123-123s123,55.1 123,123c0,67.9-55.1,123-123,123zm317.2,194.2c-10.7,10.7-28.1,10.7-38.8,0l-145.3-145.3 38.8-38.8 145.3,145.2c15.4,16.8 5.3,33.5 0,38.9z"/>
  </g>
</svg>
